<?xml version="1.0" encoding="UTF-8" standalone="no"?>
<!-- Created with Inkscape (http://www.inkscape.org/) -->

<svg
   width="48"
   height="48"
   viewBox="0 0 12.7 12.7"
   version="1.1"
   id="svg1"
   sodipodi:docname="icon-1.svg"
   inkscape:version="1.3.2 (091e20e, 2023-11-25, custom)"
   xmlns:inkscape="http://www.inkscape.org/namespaces/inkscape"
   xmlns:sodipodi="http://sodipodi.sourceforge.net/DTD/sodipodi-0.dtd"
   xmlns="http://www.w3.org/2000/svg"
   xmlns:svg="http://www.w3.org/2000/svg">
  <sodipodi:namedview
     id="namedview1"
     pagecolor="#505050"
     bordercolor="#eeeeee"
     borderopacity="1"
     inkscape:showpageshadow="0"
     inkscape:pageopacity="0"
     inkscape:pagecheckerboard="0"
     inkscape:deskcolor="#505050"
     inkscape:document-units="mm"
     inkscape:zoom="8.3755251"
     inkscape:cx="26.326708"
     inkscape:cy="22.506052"
     inkscape:window-width="1920"
     inkscape:window-height="1009"
     inkscape:window-x="1912"
     inkscape:window-y="-8"
     inkscape:window-maximized="1"
     inkscape:current-layer="layer1" />
  <defs
     id="defs1" />
  <g
     inkscape:label="Camada 1"
     inkscape:groupmode="layer"
     id="layer1">
    <g
       id="g4"
       transform="rotate(45,4.4878812,5.5786871)">
      <path
         id="rect1"
         style="fill:#5c5c5c;fill-opacity:1;stroke-width:2;stroke-linecap:round;stroke-linejoin:bevel"
         d="m 3.4959106,1.1689209 c -0.5425271,0 -0.9792683,0.4367412 -0.9792683,0.9792684 v 2.7796753 c 0,0.5425271 0.4367412,0.9792684 0.9792683,0.9792684 h 0.047026 V 1.3141317 c 0,-0.049676 0.00369,-0.098238 0.0093,-0.1452108 z m 1.3869955,0 c 0.0056,0.046972 0.00879,0.095536 0.00879,0.1452108 V 5.907133 H 7.8077922 V 1.3141317 c 0,-0.049676 0.0037,-0.098238 0.0093,-0.1452108 z m 4.2648559,0 c 0.00561,0.046972 0.00878,0.095536 0.00878,0.1452108 V 5.907133 h 0.047542 c 0.5425271,0 0.979269,-0.4367413 0.979269,-0.9792684 V 2.1481893 c 0,-0.5425272 -0.4367419,-0.9792684 -0.979269,-0.9792684 z" />
      <rect
         style="fill:#5c5c5c;fill-opacity:1;stroke-width:2;stroke-linecap:round;stroke-linejoin:bevel"
         id="rect2"
         width="1.3490561"
         height="5.2439499"
         x="5.6754718"
         y="6.0652909"
         rx="0.47385097"
         ry="0.47385097" />
    </g>
  </g>
</svg>
